<svg xmlns="http://www.w3.org/2000/svg" version="1.1" xmlns:xlink="http://www.w3.org/1999/xlink" xmlns:svgjs="http://svgjs.com/svgjs" width="1440" height="560" preserveAspectRatio="none" viewBox="0 0 1440 560"><g mask="url(&quot;#SvgjsMask1027&quot;)" fill="none"><rect width="1440" height="560" x="0" y="0" fill="rgba(42, 47, 51, 1)"></rect><path d="M1449.3882477151737 536.1843215755543L1369.6262946161755 486.3435216355611 1319.7854946761822 566.1054747345594 1399.5474477751804 615.9462746745527z" fill="rgba(67, 97, 238, 0.62)" class="triangle-float3"></path><path d="M308.01071324486344 430.94098445734556L408.23601975123097 379.8736401089717 357.16867540285716 279.64833360260417 256.9433688964896 330.71567795097803z" fill="rgba(67, 97, 238, 0.62)" class="triangle-float3"></path><path d="M1312.003055908609 126.20627286877374L1442.8771444781687 126.20627286877371 1442.8771444781687-4.667815700785951 1312.003055908609-4.667815700785923z" fill="rgba(67, 97, 238, 0.62)" class="triangle-float1"></path><path d="M-83.85499187421283 215.49180795740227L-46.66864649905524 337.12286309959234 74.96240864313481 299.93651772443474 37.77606326797722 178.30546258224467z" fill="rgba(67, 97, 238, 0.62)" class="triangle-float1"></path><path d="M349.83055053919634 83.41647146170527L310.4432448842417 220.77633010677079 487.19040918426185 122.80377711665992z" fill="rgba(67, 97, 238, 0.62)" class="triangle-float1"></path><path d="M1346.474,368.368C1365.455,368.258,1381.292,354.959,1390.208,338.202C1398.572,322.484,1397.424,304.084,1389.034,288.38C1380.066,271.595,1365.45,257.79,1346.474,256.346C1324.857,254.701,1301.319,261.858,1290.993,280.92C1280.986,299.393,1290.6,320.973,1301.855,338.713C1312.109,354.875,1327.334,368.479,1346.474,368.368" fill="rgba(67, 97, 238, 0.62)" class="triangle-float3"></path><path d="M1089.419,98.565C1112.364,98.883,1136.773,93.826,1148.91,74.352C1161.629,53.944,1158.181,28.069,1146.43,7.089C1134.375,-14.434,1114.066,-32.912,1089.419,-31.868C1065.983,-30.876,1051.377,-9.035,1040.199,11.587C1029.71,30.938,1021.877,53.586,1032.717,72.742C1043.68,92.115,1067.161,98.257,1089.419,98.565" fill="rgba(67, 97, 238, 0.62)" class="triangle-float3"></path><path d="M937.183,384.549C971.125,382.219,990.978,349.759,1006.926,319.707C1021.555,292.141,1032.691,260.328,1017.599,233.013C1002.117,204.992,969.161,191.953,937.183,193.481C907.723,194.888,885.062,215.335,869.058,240.109C851.078,267.941,834.485,300.605,848.619,330.573C864.426,364.086,900.216,387.086,937.183,384.549" fill="rgba(67, 97, 238, 0.62)" class="triangle-float2"></path></g><defs><mask id="SvgjsMask1027"><rect width="1440" height="560" fill="#ffffff"></rect></mask><style>
            @keyframes float1 {
                0%{transform: translate(0, 0)}
                50%{transform: translate(-10px, 0)}
                100%{transform: translate(0, 0)}
            }

            .triangle-float1 {
                animation: float1 5s infinite;
            }

            @keyframes float2 {
                0%{transform: translate(0, 0)}
                50%{transform: translate(-5px, -5px)}
                100%{transform: translate(0, 0)}
            }

            .triangle-float2 {
                animation: float2 4s infinite;
            }

            @keyframes float3 {
                0%{transform: translate(0, 0)}
                50%{transform: translate(0, -10px)}
                100%{transform: translate(0, 0)}
            }

            .triangle-float3 {
                animation: float3 6s infinite;
            }
        </style></defs></svg>